<?xml version="1.0" encoding="UTF-8"?>
<svg id="Layer_2" data-name="Layer 2" xmlns="http://www.w3.org/2000/svg" xmlns:xlink="http://www.w3.org/1999/xlink" viewBox="0 0 460.56 477.12">
  <defs>
    <style>
      .cls-1 {
        fill: url(#linear-gradient);
      }
    </style>
    <linearGradient id="linear-gradient" x1="230.28" y1="0" x2="230.28" y2="477.12" gradientUnits="userSpaceOnUse">
      <stop offset="0" stop-color="#dbddeb"/>
      <stop offset="1" stop-color="#5c64a6"/>
    </linearGradient>
  </defs>
  <g id="Layer_1-2" data-name="Layer 1">
    <path class="cls-1" d="M47.38,460.22c-13.48-11.26-20.21-25.51-20.21-42.74,0-8.84,2.65-17.11,7.95-24.85,5.3-7.72,13.26-17.11,23.86-28.16,14.13-14.14,25.07-27.4,32.8-39.76,7.73-12.37,11.59-26.95,11.59-43.74,0-6.18-1.22-10.49-3.64-12.92-2.43-2.42-5.42-3.64-8.94-3.64-3.98,0-7.52,1.32-10.61,3.97-3.09,2.65-7.07,6.86-11.93,12.59-6.19,7.07-11.93,12.59-17.23,16.56-5.3,3.97-11.49,5.97-18.55,5.97-9.28,0-17.01-3.32-23.19-9.94-6.19-6.63-9.28-15.46-9.28-26.51,0-15.46,4.75-25.52,14.25-30.15,9.49-4.64,23.74-7.84,42.74-9.61l7.29-.67c12.81-.88,21.87-3.2,27.17-6.96,5.3-3.75,7.95-10.49,7.95-20.21,0-13.25-3.32-25.4-9.94-36.45-6.63-11.04-16.57-24.74-29.82-41.08-11.05-12.81-19.33-23.63-24.85-32.47-5.53-8.84-8.28-17.9-8.28-27.17,0-19.44,6.84-34.68,20.54-45.72C60.74,5.53,81.51,0,109.34,0s48.48,4.75,61.96,14.25c13.47,9.5,20.21,22.86,20.21,40.09,0,11.93-2.32,22.53-6.96,31.81-4.64,9.28-11.38,20.32-20.21,33.13-7.95,12.38-13.7,22.1-17.23,29.16-3.54,7.07-5.3,14.81-5.3,23.19,0,11.05,2.42,19.99,7.29,26.84,4.85,6.86,15.68,12.26,32.47,16.24,16.79,3.98,42.41,5.96,76.87,5.96,27.83,0,48.93-1.21,63.28-3.64,14.35-2.42,24.19-6.18,29.49-11.27,5.3-5.07,7.95-12.48,7.95-22.2,0-14.58-2.98-26.61-8.94-36.12-5.96-9.5-14.91-20.21-26.84-32.14-10.6-10.16-18.56-19.22-23.86-27.17-5.3-7.95-7.95-17.67-7.95-29.16,0-19.44,7.5-34.13,22.53-44.07,15.01-9.94,36.45-14.91,64.28-14.91,54.77,0,82.17,20.33,82.17,60.97,0,8.4-1.55,16.13-4.64,23.19-3.1,7.07-8.18,15.9-15.24,26.51-12.82,20.33-22.87,40.87-30.15,61.63-7.29,20.77-10.93,49.04-10.93,84.82,0,21.64,3.09,39.87,9.28,54.67,6.18,14.81,15.01,30.6,26.51,47.38,8.83,12.82,15.24,23.64,19.22,32.46,3.98,8.84,5.96,18.78,5.96,29.82,0,19-7.19,33.03-21.54,42.08-14.36,9.05-34.57,13.58-60.63,13.58s-46.17-5.63-58.98-16.9c-12.82-11.26-19.22-26.17-19.22-44.72,0-8.84,2.42-17.56,7.29-26.18,4.85-8.61,11.7-18.43,20.54-29.49,10.16-13.25,17.89-24.84,23.19-34.78s7.95-20.43,7.95-31.48-4.75-19.88-14.25-25.18c-9.5-5.3-22.53-8.62-39.1-9.94-16.56-1.32-41.42-1.99-74.55-1.99-30.48,0-52.91,3.42-67.26,10.27-14.36,6.85-21.76,15.8-22.2,26.84-.44,8.39,.99,16.56,4.31,24.52,3.32,7.95,8.29,18.55,14.91,31.81,7.5,13.25,13.14,24.84,16.9,34.78,3.75,9.94,5.64,20,5.64,30.15,0,16.35-6.53,30.81-19.55,43.4-13.04,12.59-32.14,18.88-57.32,18.88s-45.84-5.63-59.31-16.9Z"/>
  </g>
</svg>